HIERARCHY
ROOT Hips
{
  OFFSET 0 89.5177 0.535
  CHANNELS 6 Xposition Yposition Zposition Zrotation Xrotation Yrotation
  JOINT Spine
  {
    OFFSET 12.0259 -0.162855 1.69034e-005
    CHANNELS 3 Zrotation Xrotation Yrotation
    JOINT Spine1
    {
      OFFSET 15.3169 -0.0121922 0
      CHANNELS 3 Zrotation Xrotation Yrotation
      JOINT Spine2
      {
        OFFSET 15.3176 -0.0121908 0
        CHANNELS 3 Zrotation Xrotation Yrotation
        JOINT Neck
        {
          OFFSET 19.9142 1.56338 0
          CHANNELS 3 Zrotation Xrotation Yrotation
          JOINT Head
          {
            OFFSET 6.92651 0 0
            CHANNELS 3 Zrotation Xrotation Yrotation
            End Site
            {
              OFFSET 20.7666 0 0
            }
          }
          JOINT LeftShoulder
          {
            OFFSET -6.20654 0.708824 7.28219
            CHANNELS 3 Zrotation Xrotation Yrotation
            JOINT LeftArm
            {
              OFFSET 14.108 0 -1.52588e-005
              CHANNELS 3 Zrotation Xrotation Yrotation
              JOINT LeftForeArm
              {
                OFFSET 28.5802 0 0
                CHANNELS 3 Zrotation Xrotation Yrotation
                JOINT LeftHand
                {
                  OFFSET 27.092 0 0
                  CHANNELS 3 Zrotation Xrotation Yrotation
                  End Site
                  {
                    OFFSET 9.55928 -0.186424 0.145352
                  }
                }
              }
            }
          }
          JOINT RightShoulder
          {
            OFFSET -6.20654 0.708866 -7.28218
            CHANNELS 3 Zrotation Xrotation Yrotation
            JOINT RightArm
            {
              OFFSET 14.108 0 1.52588e-005
              CHANNELS 3 Zrotation Xrotation Yrotation
              JOINT RightForeArm
              {
                OFFSET 28.5802 0 0
                CHANNELS 3 Zrotation Xrotation Yrotation
                JOINT RightHand
                {
                  OFFSET 27.092 0 0
                  CHANNELS 3 Zrotation Xrotation Yrotation
                  End Site
                  {
                    OFFSET 9.55929 -0.186417 -0.145354
                  }
                }
              }
            }
          }
        }
      }
    }
  }
  JOINT LeftUpLeg
  {
    OFFSET 0.005 -0.535 8.837
    CHANNELS 3 Zrotation Xrotation Yrotation
    JOINT LeftLeg
    {
      OFFSET 39.9035 0 0
      CHANNELS 3 Zrotation Xrotation Yrotation
      JOINT LeftFoot
      {
        OFFSET 39.6689 0 0
        CHANNELS 3 Zrotation Xrotation Yrotation
        JOINT LeftToe
        {
          OFFSET 10.1624 13.6296 0
          CHANNELS 3 Zrotation Xrotation Yrotation
          End Site
          {
            OFFSET 8.38147 0 0
          }
        }
      }
    }
  }
  JOINT RightUpLeg
  {
    OFFSET 0.005 -0.535 -8.837
    CHANNELS 3 Zrotation Xrotation Yrotation
    JOINT RightLeg
    {
      OFFSET 39.9035 0 0
      CHANNELS 3 Zrotation Xrotation Yrotation
      JOINT RightFoot
      {
        OFFSET 39.6689 0 0
        CHANNELS 3 Zrotation Xrotation Yrotation
        JOINT RightToe
        {
          OFFSET 10.1624 13.6296 0
          CHANNELS 3 Zrotation Xrotation Yrotation
          End Site
          {
            OFFSET 8.38147 0 0
          }
        }
      }
    }
  }
}
MOTION
Frames:	11
Frame Time:	0.0333333
252.025 89.9458 10.1697 179.626 -81.7845 88.853 -1.33017 -0.104776 -0.904062 -2.66183 -0.188061 -1.81013 -2.66183 -0.188061 -1.81014 -8.30708e-012 -9.0191e-006 -5.27751e-005 13.0423 3.78166 -2.7521 178.534 -16.122 -95.2661 -23.3591 -43.3319 -5.48962 -8.14072e-006 1.27222e-014 7.95139e-016 -46.8203 -30.0281 -38.0515 178.75 5.60608 102.595 84.0727 66.4065 -87.2043 -1.68257 0 -3.97569e-016 -33.5449 11.9865 18.9583 -10.7604 3.33509 -174.95 -14.9073 -7.95139e-016 -1.19271e-015 14.3074 5.50975 -11.3909 90 -7.39231e-016 -3.97569e-016 -12.1973 -4.00579 176.989 -15.5661 1.59028e-015 6.95746e-016 11.3528 -3.01339 6.27352 90 -3.51756e-016 1.98785e-016 
251.923 89.9458 10.211 179.793 -81.7489 89.0661 -1.32666 -0.0952353 -0.923996 -2.65467 -0.168577 -1.84977 -2.65467 -0.168577 -1.84977 -8.30748e-012 -9.0191e-006 -5.27751e-005 13.1253 3.87739 -2.83597 178.497 -16.0427 -95.4247 -23.123 -43.6278 -5.30041 -7.91456e-006 0 -7.95139e-016 -46.7957 -29.9552 -37.9975 178.761 5.55345 102.602 82.9495 66.3325 -86.1812 -1.7734 0 -7.95139e-016 -33.4709 12.2845 19.1474 -10.7875 3.35429 -175.064 -14.8555 -2.38542e-015 2.98177e-016 14.2974 5.5002 -11.3714 90 -5.8393e-016 3.97569e-016 -12.2767 -3.91968 176.886 -15.5729 -7.95139e-016 5.96354e-016 11.2734 -2.98541 6.21646 90 5.12492e-017 -1.98785e-016 
251.84 89.9475 10.2332 179.543 -81.74 88.8304 -1.3169 -0.0936561 -0.931995 -2.63516 -0.165393 -1.86571 -2.63516 -0.165393 -1.86572 -8.30728e-012 -9.0191e-006 -5.27751e-005 13.1884 3.9315 -2.9081 178.491 -16.0801 -95.4318 -23.1623 -43.3527 -5.27178 -7.68591e-006 -6.36111e-015 3.97569e-016 -46.8172 -30.1145 -38.1761 178.755 5.55586 102.647 82.9898 66.2986 -86.2806 -1.77947 3.97569e-016 -0 -33.4978 12.3143 19.1518 -10.8175 3.38297 -175.124 -14.8635 7.95139e-016 3.97569e-016 14.3119 5.54654 -11.4673 90 1.00635e-015 -3.97569e-016 -12.3277 -4.04301 176.792 -15.6122 0 -9.93923e-017 11.3177 -3.05791 6.36297 90 -6.18873e-016 5.96354e-016 
251.747 89.95 10.2373 178.967 -81.7308 88.2981 -1.31491 -0.098471 -0.946662 -2.63127 -0.174717 -1.89515 -2.63127 -0.174716 -1.89516 -8.30768e-012 -9.0191e-006 -5.27751e-005 13.2826 3.92602 -2.95638 178.478 -16.0639 -95.4865 -23.1442 -43.3234 -5.1937 -7.45575e-006 3.18055e-015 -0 -46.7774 -30.1592 -38.2649 178.756 5.54283 102.671 82.8943 66.2638 -86.2002 -1.76321 -3.97569e-016 3.97569e-016 -33.5195 12.3667 19.2035 -10.7883 3.31762 -175.235 -14.7687 0 -5.96354e-016 14.3025 5.55246 -11.48 90 -2.44754e-015 1.19271e-015 -12.3182 -3.96483 176.704 -15.5863 -7.95139e-016 2.28602e-015 11.1929 -2.9575 6.15984 90 -6.67792e-017 -0 
251.671 89.9547 10.2305 178.411 -81.6965 87.7852 -1.3225 -0.100411 -0.963846 -2.6465 -0.178073 -1.92957 -2.6465 -0.178073 -1.92958 -8.30788e-012 -9.0191e-006 -5.27751e-005 13.3378 3.93118 -2.99025 178.467 -16.0886 -95.5148 -23.2576 -43.3502 -5.2163 -7.2251e-006 3.18055e-015 1.19271e-015 -46.7862 -30.1213 -38.2558 178.758 5.54695 102.638 82.2881 66.2573 -85.6171 -1.7116 3.97569e-016 -3.97569e-016 -33.5394 12.5285 19.3294 -10.772 3.25843 -175.336 -14.6825 0 1.49089e-015 14.273 5.55948 -11.4946 90 1.49089e-015 7.95139e-016 -12.3388 -4.06398 176.596 -15.5636 -7.95139e-016 1.59028e-015 11.164 -2.98031 6.20563 90 1.69278e-016 -0 
251.603 89.9691 10.2173 177.868 -81.6404 87.2552 -1.33834 -0.108439 -0.97008 -2.67832 -0.193712 -1.94225 -2.67832 -0.193712 -1.94226 -8.30708e-012 -9.0191e-006 -5.27751e-005 13.3653 3.98409 -3.08587 178.457 -16.127 -95.5407 -23.2402 -43.2276 -5.16222 -6.99495e-006 -6.36111e-015 3.97569e-016 -46.7854 -30.2055 -38.3215 178.759 5.53077 102.666 82.4261 66.2089 -85.71 -1.6875 0 -7.95139e-016 -33.5545 12.5367 19.3652 -10.7628 3.21222 -175.41 -14.5622 0 -9.93923e-016 14.2042 5.55008 -11.4749 90 -5.71506e-016 -0 -12.2882 -4.00972 176.553 -15.3932 0 1.2921e-015 10.9751 -2.89974 6.04226 90 -2.91965e-016 -0 
251.541 89.974 10.1913 177.13 -81.5773 86.505 -1.35623 -0.120307 -0.967438 -2.71431 -0.217202 -1.93727 -2.71431 -0.217202 -1.93728 -8.30708e-012 -9.0191e-006 -5.27751e-005 13.3525 4.12453 -3.2012 178.445 -16.1437 -95.5761 -23.2456 -43.3321 -5.14293 -6.76629e-006 -3.18055e-015 -7.95139e-016 -46.8194 -30.1894 -38.3613 178.749 5.56153 102.7 82.5718 66.171 -85.8222 -1.70996 -7.95139e-016 3.97569e-016 -33.5084 12.5015 19.3365 -10.8028 3.1287 -175.445 -14.5407 -7.95139e-016 -7.95139e-016 14.2425 5.58197 -11.5415 90 -1.21134e-015 -3.97569e-016 -12.2456 -4.15251 176.502 -15.2456 -7.95139e-016 -9.93923e-016 10.9325 -2.9322 6.10818 90 -9.93923e-017 1.98785e-016 
251.49 89.9786 10.1586 176.863 -81.5254 86.2305 -1.36514 -0.11865 -0.964577 -2.7321 -0.213806 -1.93153 -2.7321 -0.213806 -1.93153 -8.30788e-012 -9.0191e-006 -5.27751e-005 13.2612 4.26832 -3.30088 178.426 -16.1645 -95.6357 -23.1146 -43.2619 -5.03994 -6.54013e-006 -6.36111e-015 -1.19271e-015 -46.8182 -30.2594 -38.4279 178.739 5.59153 102.728 82.788 66.1719 -85.9842 -1.70003 -3.97569e-016 -7.95139e-016 -33.5353 12.4682 19.3489 -10.8257 3.10131 -175.473 -14.5235 0 -1.49089e-015 14.2447 5.59216 -11.5628 90 1.09953e-015 -3.97569e-016 -12.2588 -4.36444 176.445 -15.1947 0 -1.98785e-016 10.9724 -3.03584 6.31742 90 -2.90412e-016 -1.98785e-016 
251.429 89.989 10.1069 176.904 -81.5257 86.2654 -1.36493 -0.114261 -0.956407 -2.72418 -0.205236 -1.91968 -2.72418 -0.205236 -1.91969 -8.30728e-012 -9.0191e-006 -5.27751e-005 13.1633 4.48564 -3.41834 178.425 -16.2046 -95.626 -23.0431 -43.2993 -5.09038 -6.31746e-006 0 7.95139e-016 -46.7623 -30.1127 -38.1881 178.734 5.59568 102.771 82.9782 66.1581 -86.141 -1.71905 0 -0 -33.4833 12.3926 19.3169 -10.7312 3.10119 -175.513 -14.4114 7.95139e-016 -1.19271e-015 14.2157 5.57264 -11.5224 90 -6.95746e-016 -3.97569e-016 -12.1241 -4.08673 176.468 -15.0107 -1.59028e-015 -0 10.6875 -2.85068 5.94259 90 -8.79001e-016 -1.98785e-016 
251.381 89.9885 10.0636 177.056 -81.509 86.411 -1.36439 -0.104261 -0.95098 -2.71813 -0.185473 -1.90398 -2.71813 -0.185473 -1.90399 -8.30748e-012 -9.0191e-006 -5.27751e-005 13.0604 4.68761 -3.47843 178.414 -16.2804 -95.6391 -22.9848 -43.3113 -5.07756 -6.09929e-006 0 -0 -46.7237 -30.1565 -38.1732 178.719 5.64726 102.807 83.0554 66.1937 -86.232 -1.68186 7.95139e-016 -0 -33.5543 12.4402 19.3111 -10.7369 3.10984 -175.542 -14.4607 0 -1.78906e-015 14.2299 5.56633 -11.5093 90 2.56556e-015 -3.97569e-016 -12.1058 -4.0763 176.444 -14.9871 7.95139e-016 9.93923e-017 10.6816 -2.86171 5.96467 90 4.03781e-016 -0 
251.345 89.9793 10.0171 176.958 -81.4982 86.3068 -1.36375 -0.0995545 -0.951468 -2.71878 -0.176166 -1.89616 -2.71878 -0.176166 -1.89617 -8.30748e-012 -9.0191e-006 -5.27751e-005 12.9877 4.87306 -3.45173 178.396 -16.2994 -95.6987 -22.8847 -43.3988 -5.06561 -5.8866e-006 0 -0 -46.7559 -30.089 -38.1897 178.705 5.69077 102.846 83.3548 66.1697 -86.5137 -1.72379 0 -3.97569e-016 -33.5464 12.3549 19.2836 -10.7557 3.07702 -175.555 -14.5392 -7.95139e-016 3.97569e-016 14.3243 5.56413 -11.5056 90 1.61513e-016 7.95139e-016 -12.1039 -4.16203 176.411 -15.0185 0 -2.98177e-016 10.7459 -2.90194 6.04625 90 9.11614e-016 -0 
